<svg width="16" height="16" fill="none" xmlns="http://www.w3.org/2000/svg"><path d="M5.556 7.957A2.441 2.441 0 018 5.52a2.442 2.442 0 012.445 2.438A2.442 2.442 0 018 10.396a2.441 2.441 0 01-2.444-2.439zm-1.321 0A3.76 3.76 0 008 11.713a3.76 3.76 0 003.766-3.756A3.76 3.76 0 008 4.202a3.76 3.76 0 00-3.765 3.755zm6.8-3.904a.876.876 0 00.543.811.882.882 0 001.2-.64.875.875 0 00-.863-1.048.882.882 0 00-.88.877zM5.038 13.91c-.715-.033-1.104-.152-1.362-.252a2.28 2.28 0 01-.844-.547 2.256 2.256 0 01-.548-.84c-.101-.258-.22-.646-.253-1.359-.035-.77-.042-1.002-.042-2.956 0-1.953.007-2.184.042-2.955.033-.713.153-1.1.253-1.358a2.27 2.27 0 01.548-.842c.257-.256.5-.414.844-.547.258-.1.647-.219 1.362-.251C5.81 1.968 6.043 1.96 8 1.96c1.958 0 2.19.008 2.964.043.715.032 1.103.152 1.362.251.342.133.587.292.843.547.257.256.416.5.549.842.1.257.22.645.252 1.358.036.771.043 1.002.043 2.955 0 1.954-.007 2.185-.043 2.956-.032.713-.152 1.1-.252 1.358a2.266 2.266 0 01-.549.841 2.28 2.28 0 01-.843.547c-.258.1-.647.22-1.362.252-.773.035-1.005.042-2.964.042-1.958 0-2.19-.007-2.962-.042zM4.977.688c-.78.035-1.314.159-1.78.34a3.598 3.598 0 00-1.3.843 3.573 3.573 0 00-.845 1.296c-.181.465-.305.996-.34 1.775-.037.78-.045 1.03-.045 3.015 0 1.987.008 2.236.044 3.016.036.778.16 1.31.34 1.775.188.481.439.89.847 1.296s.816.656 1.299.843c.467.181 1 .305 1.78.34.782.035 1.032.044 3.023.044 1.992 0 2.242-.008 3.024-.044.78-.035 1.314-.159 1.78-.34.482-.187.89-.437 1.3-.843.407-.407.657-.815.845-1.296.181-.465.306-.997.34-1.775.036-.78.044-1.03.044-3.016s-.008-2.235-.043-3.015c-.036-.779-.16-1.31-.341-1.775a3.597 3.597 0 00-.846-1.296 3.589 3.589 0 00-1.298-.843c-.467-.181-1-.305-1.78-.34C10.242.652 9.992.644 8 .644S5.759.652 4.977.688z" fill="#fff"/></svg>