<svg width="8" height="14" fill="none" xmlns="http://www.w3.org/2000/svg"><path d="M4 2.32c.814 0 1.476.637 1.476 1.421 0 .783-.662 1.42-1.476 1.42-.813 0-1.476-.637-1.476-1.42 0-.784.663-1.421 1.476-1.421zm0 4.852c1.966 0 3.565-1.54 3.565-3.431C7.565 1.848 5.966.309 4 .309S.435 1.849.435 3.74 2.035 7.17 4 7.17zm1.442 2.8a6.818 6.818 0 002.07-.826c.234-.142.4-.368.462-.628a.974.974 0 00-.134-.758 1.022 1.022 0 00-.28-.286 1.064 1.064 0 00-.78-.17c-.135.022-.264.07-.38.14a4.676 4.676 0 01-4.8 0 1.068 1.068 0 00-.788-.13 1.09 1.09 0 00-.372.16 1.021 1.021 0 00-.28.286.974.974 0 00-.134.758c.061.26.227.486.462.628a6.824 6.824 0 002.07.825L.564 11.89a.987.987 0 00-.306.711c0 .267.11.522.306.711.196.189.461.295.738.294.277 0 .543-.106.739-.294L4 11.427l1.958 1.885a1.049 1.049 0 00.738.295 1.079 1.079 0 00.738-.295.972.972 0 000-1.422L5.442 9.971z" fill="#fff"/></svg>