<svg width="15" height="13" fill="none" xmlns="http://www.w3.org/2000/svg"><path fill-rule="evenodd" clip-rule="evenodd" d="M11.134 12.844c.878.363 1.208-.399 1.208-.399l2.325-11.042c-.019-.745-1.08-.295-1.08-.295L.57 5.938s-.622.207-.568.57c.055.364.55.537.55.537l3.276 1.039s.989 3.063 1.19 3.652c.183.57.348.588.348.588.183.07.348-.052.348-.052l2.123-1.817 3.296 2.389zm.441-9.109s.432-.23.415 0c0 0 .07.031-.156.246-.207.184-5.098 4.076-5.755 4.597-.051.031-.086.077-.086.138l-.19 1.441c-.035.153-.26.169-.311.03l-.812-2.36c-.035-.092 0-.199.103-.26l6.792-3.832z" fill="#fff"/></svg>