<svg width="48" height="48" fill="none" xmlns="http://www.w3.org/2000/svg"><path d="M43.355 13.935h-1.548V7.742h-1.549V4.645h-3.87V0h-1.55v4.645h-3.87v3.097h-1.549v6.193h-1.548v10.84h-1.548v-4.646h-1.549v-3.097h-2.322v-3.87h-1.549v3.87h-2.322v3.097h-1.549v4.645h-3.096v21.678h-1.549V48h32.516v-1.548h-1.548V13.935zM32.516 6.194h6.194v1.548h-6.194V6.194zM30.968 9.29h9.29v4.646H38.71v-3.097h-1.55v3.096h-3.096V10.84h-1.549v3.096h-1.548V9.29zm10.839 6.194v30.968h-2.323V38.71h-7.742v7.742h-2.323V15.484h12.388zm-3.871 30.968H33.29v-6.194h4.646v6.194zM20.129 18.58h3.097v1.548h-3.097V18.58zm-1.548 3.096h6.193v3.097h-2.322v-1.548h-1.549v1.548h-2.322v-3.097zm-3.097 4.646h12.387v20.129h-1.548V27.87h-1.549v18.58h-2.322V27.87h-1.549v18.58h-2.322V27.87h-1.549v18.58h-1.548V26.324z" fill="#fff"/><path d="M30.968 17.032h1.548v1.549h-1.548v-1.549zm3.871 0h1.548v1.549h-1.548v-1.549zm3.871 0h1.548v1.549H38.71v-1.549zm-7.742 4.645h1.548v1.549h-1.548v-1.549zm3.871 0h1.548v1.549h-1.548v-1.549zm3.871 0h1.548v1.549H38.71v-1.549zm-7.742 4.646h1.548v1.548h-1.548v-1.548zm3.871 0h1.548v1.548h-1.548v-1.548zm3.871 0h1.548v1.548H38.71v-1.548zm-7.742 4.645h1.548v1.548h-1.548v-1.548zm3.871 0h1.548v1.548h-1.548v-1.548zm3.871 0h1.548v1.548H38.71v-1.548zm-7.742 4.645h1.548v1.548h-1.548v-1.548zm3.871 0h1.548v1.548h-1.548v-1.548zm3.871 0h1.548v1.548H38.71v-1.548zM0 23.226h1.548v1.548H0v-1.548zm0 3.097h1.548v9.29H0v-9.29zm4.645 2.322h1.549v1.549H4.645v-1.549zm0 3.097h1.549v9.29H4.645v-9.29zm4.645-8.516h1.549v1.548H9.29v-1.548zm0 3.097h1.549v9.29H9.29v-9.29zm37.162 20.129H48V48h-1.548v-1.548zm-37.162 0h1.549V48H9.29v-1.548z" fill="#fff"/></svg>