<svg width="48" height="48" fill="none" xmlns="http://www.w3.org/2000/svg"><g clip-path="url(#clip0)" fill="#fff"><path d="M11.613 20.129v-1.548a6.975 6.975 0 01-6.968-6.968H3.097c0 4.695 3.82 8.516 8.516 8.516z"/><path d="M11.613 17.032a5.426 5.426 0 005.42-5.419 5.426 5.426 0 00-5.42-5.42 5.426 5.426 0 00-5.42 5.42 5.426 5.426 0 005.42 5.42zm0-9.29a3.875 3.875 0 013.87 3.871 3.875 3.875 0 01-3.87 3.87 3.875 3.875 0 01-3.871-3.87 3.876 3.876 0 013.871-3.871z"/><path d="M11.613 13.935a2.326 2.326 0 002.322-2.322 2.326 2.326 0 00-2.322-2.323 2.326 2.326 0 00-2.323 2.323 2.326 2.326 0 002.323 2.322zm0-3.096a.775.775 0 11-.001 1.55.775.775 0 010-1.55z"/><path d="M48 36.937v-5.745l-2.095-.73a12.373 12.373 0 00-.92-2.224l.965-1.996-.748-.748c-.346-.454-.914-1.054-1.344-1.489a33.737 33.737 0 00-1.57-1.494l-5.152-4.505.443-1.326 1.792.897 2.979-2.98-.897-1.792 1.902-.634V7.96l-1.902-.634.897-1.792-2.98-2.98-1.791.898-.634-1.903h-4.212L32.1 3.45l-1.793-.897-2.979 2.98.897 1.792-1.902.633v.59L19.95 2.977A12.024 12.024 0 0012.03 0v.02c-.14-.004-.276-.02-.417-.02C5.21 0 0 5.21 0 11.613c0 .14.016.277.02.417H0c0 2.914 1.057 5.726 2.976 7.92l5.576 6.373h-.594l-.633 1.901-1.793-.897-2.979 2.98.897 1.792-1.902.633v4.213l1.902.633-.897 1.792 2.98 2.98 1.792-.897.633 1.902h4.213l.633-1.902 1.792.897 2.98-2.98-.898-1.791 1.335-.445 4.494 5.136c.352.402.88.962 1.378 1.462.47.474 1.118 1.098 1.604 1.468l.75.75 1.997-.964c.706.376 1.45.685 2.223.92L31.192 48h5.745l.73-2.095a12.372 12.372 0 002.224-.92l1.996.965 4.063-4.063-.965-1.996c.376-.706.685-1.45.92-2.224l2.095-.73zm-24.856-8.699c-.376.706-.685 1.45-.92 2.224l-2.095.73v5.745l2.095.73c.235.773.543 1.518.92 2.224l-.235.485L7.102 22.314c1.388.587 2.912.912 4.51.912 6.404 0 11.614-5.21 11.614-11.613 0-1.6-.325-3.126-.913-4.514l18.074 15.805-.495.24a12.413 12.413 0 00-2.224-.92l-.731-2.095h-5.745l-.73 2.095c-.773.235-1.518.543-2.224.92l-1.996-.965-4.063 4.063.965 1.996zM27.87 9.074l1.777-.592.13-.343c.039-.1.078-.197.12-.293l.15-.335-.837-1.674 1.4-1.4 1.674.837.336-.15a5.8 5.8 0 01.292-.12l.343-.13.593-1.777h1.98l.593 1.777.343.13c.1.038.197.078.293.12l.335.15 1.673-.837 1.401 1.4-.837 1.674.15.335c.043.096.081.193.12.293l.13.343 1.776.592v1.981l-1.777.593-.13.343c-.038.1-.078.197-.12.293l-.15.334.837 1.674-1.4 1.4-1.674-.836-.335.15a5.748 5.748 0 01-.293.12l-.343.13-.548 1.645-8.002-6.998v-.829zM11.613 1.548c5.55 0 10.064 4.516 10.064 10.065 0 5.55-4.515 10.064-10.064 10.064-5.55 0-10.065-4.515-10.065-10.064 0-5.55 4.516-10.065 10.065-10.065zm3.642 34.873l-.13.343c-.038.1-.078.197-.12.293l-.15.335.837 1.674-1.4 1.4-1.674-.837-.335.15a5.747 5.747 0 01-.293.12l-.343.13-.592 1.777H9.074L8.48 40.03l-.343-.13a6.561 6.561 0 01-.292-.12l-.335-.15-1.674.837-1.4-1.4.837-1.674-.15-.335a5.803 5.803 0 01-.12-.293l-.13-.343-1.777-.592v-1.981l1.777-.593.13-.342c.038-.1.078-.197.12-.293l.15-.335-.837-1.673 1.4-1.4 1.674.836.335-.15c.096-.043.193-.081.293-.12l.343-.13.592-1.777h.834l7 8-1.653.55zm29.374.052l-.106.396c-.246.92-.61 1.797-1.079 2.61l-.206.355.839 1.735-2.508 2.508-1.735-.839-.355.206c-.813.47-1.691.832-2.61 1.079l-.396.106-.636 1.823h-3.545l-.636-1.823-.396-.106a10.772 10.772 0 01-2.61-1.079l-.355-.206-1.735.839-2.508-2.508.839-1.735-.206-.355a10.829 10.829 0 01-1.079-2.61l-.106-.396-1.823-.636v-3.545l1.823-.636.106-.396c.246-.92.61-1.797 1.079-2.61l.206-.355-.838-1.735 2.507-2.508 1.735.839.355-.206c.813-.47 1.691-.832 2.61-1.079l.396-.106.636-1.823h3.545l.636 1.823.396.106c.92.246 1.797.61 2.61 1.079l.355.206 1.735-.838 2.508 2.507-.839 1.735.206.355c.47.813.832 1.691 1.079 2.61l.106.396 1.823.636v3.545l-1.823.636z"/><path d="M34.064 26.323c-4.269 0-7.741 3.473-7.741 7.742s3.472 7.742 7.741 7.742c4.27 0 7.742-3.473 7.742-7.742 0-4.27-3.472-7.742-7.742-7.742zm0 13.935a6.2 6.2 0 01-6.193-6.193 6.2 6.2 0 016.193-6.194 6.2 6.2 0 016.194 6.194 6.2 6.2 0 01-6.194 6.193z"/><path d="M34.065 29.42a4.65 4.65 0 00-4.646 4.645 4.65 4.65 0 004.646 4.645 4.65 4.65 0 004.645-4.645 4.65 4.65 0 00-4.645-4.646zm0 7.741a3.1 3.1 0 01-3.097-3.096 3.1 3.1 0 013.097-3.097 3.1 3.1 0 013.096 3.097 3.1 3.1 0 01-3.096 3.096zm4.645-27.096a3.876 3.876 0 00-3.871-3.871 3.875 3.875 0 00-3.871 3.87 3.875 3.875 0 003.87 3.871 3.875 3.875 0 003.872-3.87zm-6.194 0a2.326 2.326 0 012.323-2.323 2.326 2.326 0 012.322 2.323 2.326 2.326 0 01-2.322 2.322 2.326 2.326 0 01-2.323-2.322zM6.194 34.839a3.876 3.876 0 003.87 3.87 3.875 3.875 0 003.871-3.87 3.875 3.875 0 00-3.87-3.871 3.875 3.875 0 00-3.871 3.87zm6.193 0a2.326 2.326 0 01-2.322 2.322 2.326 2.326 0 01-2.323-2.322 2.326 2.326 0 012.323-2.323 2.326 2.326 0 012.322 2.323z"/></g><defs><clipPath id="clip0"><path fill="#fff" d="M0 0h48v48H0z"/></clipPath></defs></svg>