<svg width="48" height="48" fill="none" xmlns="http://www.w3.org/2000/svg"><path d="M47.998 9.16c-.047-4.074-2.132-6.318-5.87-6.318-1.447 0-2.841.337-3.752.618.09-1.666.092-2.693.092-2.745V.003H9.533v.712c0 .025.002 1.069.094 2.745-.911-.28-2.307-.618-3.755-.618-3.738 0-5.822 2.243-5.87 6.317-.047 4.008.867 7.576 2.716 10.604a17.155 17.155 0 005.765 5.744c2.606 1.57 5.211 1.898 6.938 1.898.425 0 .835-.02 1.219-.06l.074-.008c.835.9 1.734 1.62 2.696 2.154a2.807 2.807 0 011.37 1.873 2.352 2.352 0 00-1.65 2.243 2.35 2.35 0 001.716 2.261v2.992h-3.857v3.122h-3.807v6.016h21.636v-6.016h-3.806V38.86h-3.857v-2.992a2.352 2.352 0 001.716-2.26 2.352 2.352 0 00-1.651-2.244 2.807 2.807 0 011.37-1.873c.96-.533 1.866-1.257 2.699-2.153.295.032.737.067 1.29.067 1.727 0 4.332-.33 6.938-1.898a17.157 17.157 0 005.765-5.744c1.85-3.028 2.763-6.596 2.716-10.604zM37.031 1.427c-.007.26-.017.589-.032.972H11.005a63.766 63.766 0 01-.034-.972h26.06zM38 7.973c.965-.321 2.217-.646 3.338-.646.94 0 1.617.23 2.012.683.454.52.6 1.396.435 2.6-.69 5.018-2.865 8.935-6.127 11.03-1.136.73-2.36 1.03-3.385 1.138 2.169-4.56 3.219-10.28 3.726-14.805zm-27.267 4.965c.701 3.761 1.67 6.99 2.877 9.6l.114.24c-1.025-.108-2.248-.409-3.384-1.138-3.262-2.095-5.437-6.012-6.127-11.03-.165-1.204-.019-2.08.435-2.6.395-.453 1.072-.682 2.012-.682 1.122 0 2.375.324 3.341.646.173 1.543.41 3.233.732 4.964zM15.42 25.98c-1.546 0-3.877-.294-6.203-1.694-2.379-1.431-7.9-5.77-7.79-15.11.038-3.303 1.492-4.908 4.444-4.908 1.58 0 3.138.476 3.851.727.036.478.076.957.12 1.435-.97-.285-2.11-.528-3.182-.528-1.37 0-2.409.394-3.087 1.171-.736.845-.996 2.1-.772 3.731.384 2.794 1.186 5.263 2.384 7.34 1.144 1.982 2.62 3.562 4.385 4.695 1.724 1.108 3.59 1.387 4.92 1.414l.014.023a20.392 20.392 0 00.506.838l.082.126a17.167 17.167 0 00.437.642l.068.096-.177.002zm17.972 17.428v3.164H14.608v-3.164h18.784zm-6.238-3.122h2.431v1.696H18.414v-1.696h8.741zM22.27 38.86v-2.904h3.458v2.904H22.27zm5.175-5.253a.924.924 0 01-.923.923h-5.046a.924.924 0 010-1.846h5.046c.51 0 .923.414.923.923zm3.566-8.149l-.024.03c-.07.091-.14.18-.212.267l-.052.064a13.3 13.3 0 01-.236.279l-.011.013c-.795.907-1.663 1.625-2.58 2.135a4.238 4.238 0 00-2.109 3.013h-3.576a4.239 4.239 0 00-2.109-3.013c-.885-.492-1.683-1.15-2.405-1.936l-.175-.2c-.708-.808-1.376-1.787-1.985-2.91l-.187-.344c-3.065-5.923-3.992-14.483-4.272-19.03h25.848a80.09 80.09 0 01-.04.614l-.002.03c-.015.23-.032.46-.05.691l-.002.02a78.815 78.815 0 01-.201 2.19l-.047.44c-.518 4.643-1.612 10.558-3.919 15.014l-.203.375a17.05 17.05 0 01-1.451 2.258zm7.77-1.172c-2.326 1.4-4.657 1.694-6.202 1.694-.061 0-.12 0-.178-.002l.003-.004c.093-.127.184-.257.273-.388l.033-.049a17.78 17.78 0 00.523-.816c.013-.02.025-.042.037-.063.065-.108.13-.218.193-.329l.045-.076c1.33-.027 3.196-.306 4.92-1.414 1.766-1.133 3.242-2.713 4.385-4.695 1.199-2.076 2-4.546 2.385-7.34.224-1.63-.036-2.886-.773-3.73-.678-.778-1.716-1.172-3.087-1.172-1.07 0-2.212.243-3.181.528a79.118 79.118 0 00.119-1.435c.713-.251 2.272-.727 3.851-.727 2.952 0 4.406 1.605 4.445 4.908.11 9.34-5.412 13.678-7.79 15.11z" fill="#fff"/></svg>