<svg width="48" height="48" fill="none" xmlns="http://www.w3.org/2000/svg"><path d="M45.333 43.429a2.289 2.289 0 00-2.285 2.285A2.289 2.289 0 0045.333 48a2.289 2.289 0 002.286-2.286 2.289 2.289 0 00-2.286-2.285zm0 3.047a.763.763 0 010-1.524.763.763 0 010 1.524zM4.952 2.286A2.289 2.289 0 002.667 0 2.289 2.289 0 00.38 2.286 2.289 2.289 0 002.667 4.57a2.289 2.289 0 002.285-2.285zm-3.047 0a.762.762 0 11.762.762.763.763 0 01-.762-.762zm39.406 27.908l-1.505-3.01c.32-.648.593-1.302.818-1.953l3.185-1.062V15.45l-3.185-1.063a16.73 16.73 0 00-.818-1.953l1.507-3.012-6.164-6.164-3.013 1.506a16.755 16.755 0 00-1.953-.817L29.121.762h-8.718L19.34 3.948c-.652.224-1.306.498-1.954.817l-3.012-1.506L8.21 9.423l1.506 3.012a16.74 16.74 0 00-.817 1.954L5.714 15.45v8.717L8.9 25.23c.222.646.493 1.295.809 1.938l-.98 1.784H4.19V44.19h5.334v-2.285h5.78l2.285 2.285h4.125v.762A3.05 3.05 0 0024.762 48a3.05 3.05 0 003.047-3.048v-.761h5.335a2.289 2.289 0 002.285-2.286 2.27 2.27 0 00-.594-1.524c.366-.406.594-.936.594-1.524 0-.587-.229-1.118-.594-1.524a2.27 2.27 0 00.56-1.175l5.916-5.965zM11.247 26.83a15.24 15.24 0 01-1.017-2.431l-.117-.37-2.875-.96v-6.52l2.875-.958.116-.371c.255-.807.597-1.625 1.017-2.43l.179-.346-1.36-2.72 4.61-4.61 2.72 1.36.346-.18a15.16 15.16 0 012.43-1.016l.371-.117.96-2.875h6.52l.959 2.874.37.117a15.1 15.1 0 012.43 1.016l.346.18 2.72-1.36 4.611 4.61-1.36 2.72.18.346c.42.806.761 1.623 1.016 2.43l.116.371 2.876.96v6.52l-2.875.958-.117.37a15.25 15.25 0 01-1.017 2.432l-.179.345 1.362 2.722-4.502 4.537a2.274 2.274 0 00-.123-.148c.366-.406.594-.937.594-1.524a2.281 2.281 0 00-2.075-2.265 13.63 13.63 0 005.122-10.687c0-7.562-6.152-13.715-13.714-13.715S11.048 12.248 11.048 19.81a13.72 13.72 0 005.1 10.666H9.631l1.803-3.285-.187-.361zm22.659 12.027c0 .42-.343.762-.762.762h-6.096a.763.763 0 010-1.524h6.096c.42 0 .762.342.762.762zM22.923 19.81H26.6l1.21-1.21v-3.363c.84 0 1.523.684 1.523 1.524v3.494l-2.6 2.601h-3.941l-2.602-2.601v-3.494c0-.84.684-1.524 1.524-1.524V18.6l1.209 1.209zm.315 4.571h3.048v3.048h-3.048V24.38zm4.572-.446l3.047-3.048v-4.125a3.05 3.05 0 00-3.047-3.048h-1.524v4.256l-.316.316h-2.416l-.316-.316v-4.256h-1.524a3.05 3.05 0 00-3.047 3.048v4.125l3.047 3.048v3.494h-1.839l-.048.048c-2.601-1.679-4.208-4.557-4.208-7.667 0-5.042 4.101-9.143 9.143-9.143 5.041 0 9.143 4.1 9.143 9.143 0 3.088-1.543 5.916-4.125 7.619h-1.97v-3.494zm7.619-4.125c0-5.882-4.785-10.667-10.667-10.667S14.095 13.927 14.095 19.81c0 3.519 1.75 6.796 4.623 8.776l-1.098 1.097a12.195 12.195 0 01-5.049-9.873c0-6.722 5.47-12.19 12.19-12.19 6.722 0 12.191 5.468 12.191 12.19 0 3.765-1.702 7.24-4.608 9.542a2.268 2.268 0 00-.759-1.356 10.596 10.596 0 003.843-8.186zM33.144 32a.763.763 0 010 1.524h-6.096a.763.763 0 010-1.524h6.096zm-6.096 4.572a.763.763 0 010-1.524h6.096a.763.763 0 010 1.523h-6.096zM8 42.666H5.714v-12.19H8v12.19zm10.22 0l-2.285-2.286H9.524V32h7.934l3.048-3.049h9.59a.763.763 0 010 1.524H22.16l-3.271 3.271 1.077 1.078 1.747-1.748v9.59H18.22zm6.542 3.81c-.84 0-1.524-.684-1.524-1.525V32h1.664c-.085.24-.14.494-.14.762 0 .587.229 1.118.594 1.524a2.268 2.268 0 00-.594 1.524c0 .587.229 1.118.594 1.523a2.268 2.268 0 00-.594 1.524c0 .588.229 1.118.594 1.524a2.268 2.268 0 00-.594 1.524c0 .992.639 1.83 1.524 2.145v.902c0 .84-.684 1.524-1.524 1.524zm8.382-3.81h-6.096a.763.763 0 010-1.524h6.096a.763.763 0 010 1.524zM1.905 6.857h1.524v1.524H1.905V6.857zm0 3.81h1.524v1.523H1.905v-1.523zm0 3.809h1.524V16H1.905v-1.524zM44.572 32h1.523v1.524h-1.523V32zm0 3.81h1.523v1.523h-1.523V35.81zm0 3.809h1.523v1.524h-1.523v-1.524z" fill="#fff"/></svg>